<?xml version="1.0" standalone="no"?>
<!DOCTYPE svg PUBLIC "-//W3C//DTD SVG 20010904//EN"
 "http://www.w3.org/TR/2001/REC-SVG-20010904/DTD/svg10.dtd">
<svg version="1.0" xmlns="http://www.w3.org/2000/svg"
 width="24.000000pt" height="24.000000pt" viewBox="0 0 24.000000 24.000000"
 preserveAspectRatio="xMidYMid meet">

<g transform="translate(0.000000,24.000000) scale(0.100000,-0.100000)"
fill="#000000" stroke="none">
<path d="M22 218 c-16 -16 -16 -180 0 -196 16 -16 180 -16 196 0 16 16 16 180
0 196 -16 16 -180 16 -196 0z m48 -54 l0 -45 53 3 52 3 3 43 c2 28 8 42 18 42
11 0 14 -18 14 -90 l0 -90 -90 0 -90 0 0 90 c0 83 1 90 20 90 17 0 20 -7 20
-46z m90 11 c0 -34 -1 -35 -40 -35 -39 0 -40 1 -40 35 0 34 1 35 40 35 39 0
40 -1 40 -35z"/>
<path d="M141 174 c0 -11 3 -14 6 -6 3 7 2 16 -1 19 -3 4 -6 -2 -5 -13z"/>
</g>
</svg>
